<svg width="40" height="40" viewBox="0 0 40 40" fill="none" xmlns="http://www.w3.org/2000/svg">
<path d="M19.9999 34.1666H11.6666C6.66659 34.1666 3.33325 31.6666 3.33325 25.8333V14.1666C3.33325 8.33325 6.66659 5.83325 11.6666 5.83325H28.3333C33.3333 5.83325 36.6666 8.33325 36.6666 14.1666V19.1666" stroke="#F1F9FE" stroke-width="2" stroke-miterlimit="10" stroke-linecap="round" stroke-linejoin="round"/>
<path d="M28.3334 15L23.1167 19.1667C21.4001 20.5333 18.5834 20.5333 16.8667 19.1667L11.6667 15" stroke="#F1F9FE" stroke-width="2" stroke-miterlimit="10" stroke-linecap="round" stroke-linejoin="round"/>
<path d="M32.0166 24.6166L26.1166 30.5167C25.8833 30.75 25.6666 31.1833 25.6166 31.5L25.2999 33.75C25.1832 34.5667 25.7499 35.1333 26.5666 35.0167L28.8166 34.7C29.1332 34.65 29.5832 34.4333 29.7999 34.2L35.6999 28.3C36.7166 27.2833 37.1999 26.1 35.6999 24.6C34.2166 23.1167 33.0332 23.6 32.0166 24.6166Z" stroke="#F1F9FE" stroke-width="2" stroke-miterlimit="10" stroke-linecap="round" stroke-linejoin="round"/>
<path d="M31.1665 25.4666C31.6665 27.2666 33.0665 28.6666 34.8665 29.1666" stroke="#F1F9FE" stroke-width="2" stroke-miterlimit="10" stroke-linecap="round" stroke-linejoin="round"/>
</svg>
