<svg width="221" height="370" viewBox="0 0 221 370" fill="none" xmlns="http://www.w3.org/2000/svg">
<path d="M182.547 112.811C182.547 112.811 182.606 112.105 183.431 111.165C183.961 110.165 184.491 108.931 184.491 108.225C184.55 106.932 186.022 106.403 186.611 107.461C186.787 107.814 186.905 108.225 186.905 108.696C189.26 107.637 192.911 106.638 198.506 106.285C198.506 106.285 202.804 105.815 200.037 109.46C198.152 111.87 196.562 111.929 193.854 115.28C191.145 118.689 187.141 120.512 184.078 119.63L180.486 120.041L178.131 114.339L182.547 112.811Z" fill="#F9C29D"/>
<path d="M67.0715 75.0112C67.0715 75.0112 70.6047 113.81 120.894 130.211C134.437 134.62 185.197 121.041 185.197 121.041C185.197 121.041 184.903 114.339 180.781 112.693C180.781 112.693 133.201 109.754 129.196 111.753C125.663 113.516 95.278 82.2419 85.444 77.2451C75.61 72.2483 67.0715 75.0112 67.0715 75.0112Z" fill="#8D043E"/>
<path d="M5.00543 342.018C5.00543 342.018 -1.00098 347.485 0.176748 351.424C1.35448 355.304 6.77202 357.89 7.53754 362.652C8.24417 367.414 11.1885 370 13.8384 370C16.4883 370 26.4401 370 26.4401 370C26.4401 370 28.3833 366.649 23.6724 365.65C18.9615 364.651 17.1949 359.066 17.4893 353.834C17.7838 348.661 17.0771 341.724 17.0771 341.724L7.06646 339.431L5.00543 342.018Z" fill="#151F2C"/>
<path d="M5.00543 338.549C6.12427 341.783 18.1959 346.544 18.1959 346.544C18.1959 346.544 24.7912 336.139 45.9314 298.928C47.7568 295.694 49.6412 292.226 51.5844 288.464C72.3713 248.665 99.2234 182.472 99.2234 182.472L47.9335 168.187C47.9335 168.187 45.5192 188.762 45.0481 199.168C44.7536 205.516 41.1616 219.096 36.5684 230.912C33.6241 238.437 30.3265 245.315 27.2055 249.136C13.0728 266.713 5.00543 338.549 5.00543 338.549Z" fill="#384152"/>
<path d="M36.5684 230.912C39.8072 247.255 45.6958 274.59 51.5844 288.464C72.3713 248.665 99.2234 182.472 99.2234 182.472L47.9335 168.187C47.9335 168.187 45.5192 188.762 45.0481 199.168C44.8125 205.516 41.1616 219.096 36.5684 230.912Z" fill="#151F2C"/>
<path d="M78.8487 356.185C78.8487 356.185 77.7887 368.648 80.4386 369.941L114.239 369.883C114.239 369.883 114.239 366.003 108.822 365.121C103.404 364.239 93.8646 361.065 92.2158 354.01C90.567 346.956 78.8487 356.185 78.8487 356.185Z" fill="#151F2C"/>
<path d="M107.35 179.886C107.35 179.886 105.583 201.754 103.463 228.031C100.637 263.773 97.1623 307.628 96.8679 315.917C96.279 330.378 93.9235 353.422 93.9235 353.422C93.9235 353.422 88.3294 358.889 77.1999 356.597C77.1999 356.597 67.2481 323.618 64.4216 288.758C64.3627 288.17 64.3627 287.582 64.3038 287.053C61.6539 251.546 57.5319 176.77 57.5319 176.77L107.35 179.886Z" fill="#384152"/>
<path d="M60.7118 61.4905C60.7118 61.4905 92.1571 71.0726 88.4472 66.3697C88.9183 63.548 90.3316 56.0822 90.5671 53.9659C91.156 49.2042 91.156 46.5 91.156 46.5L81.7931 39.1518L72.9013 32.0974C73.6079 51.9671 60.7118 61.4905 60.7118 61.4905Z" fill="#EE805F"/>
<path d="M32.2697 221.33C57.7675 238.495 109.293 233.616 109.705 233.263C110.588 222.329 111.059 204.282 111.295 187.587C111.648 166.835 111.648 148.2 111.589 147.788C111.589 147.788 111.589 147.142 111.531 146.084C111.472 142.733 111.236 134.973 111.001 129.212C110.942 128.154 110.942 127.154 110.883 126.214C110.883 126.155 110.883 126.096 110.883 126.096C110.706 123.51 109.116 116.573 106.937 108.519C103.64 96.7032 99.0467 82.477 95.4546 75.8341C93.6292 72.4245 87.4461 62.6072 87.4461 62.6072C83.0885 63.489 79.9676 62.1957 75.3744 59.9619C70.3691 57.5516 64.9516 54.965 64.0683 55.6117C57.5319 60.3734 53.0566 71.19 50.7011 84.8872C49.4645 92.8233 31.0331 220.448 32.2697 221.33Z" fill="#EF0065"/>
<path d="M72.7246 39.7395C72.7246 39.7395 78.8488 50.9089 90.5083 54.0246C91.0972 49.2629 91.0972 46.5587 91.0972 46.5587L81.7342 39.2104L72.7246 39.7395Z" fill="#DE6B4D"/>
<path d="M95.3958 46.2649C95.3958 46.2649 72.2536 50.0272 70.0748 35.8597C67.896 21.6923 63.4795 12.5804 78.1422 9.58234C92.8049 6.58425 96.5147 11.5811 98.399 16.1076C100.342 20.6341 101.343 44.9128 95.3958 46.2649Z" fill="#EE805F"/>
<path d="M61.6539 7.81865C61.4184 7.58351 60.9473 7.40715 59.8873 7.34836C59.8873 7.34836 60.7706 6.81929 61.8895 6.7605C62.125 5.29085 62.8905 2.64547 65.4815 1.99882C65.4815 1.99882 64.0683 2.76304 63.8916 4.35027C66.8948 1.29339 73.2545 -0.940485 90.9793 0.470382C114.416 2.29275 106.761 17.2244 103.699 18.988C100.695 20.7516 93.0403 15.8724 87.4461 16.3426C81.793 16.8129 80.7331 24.9254 78.8487 26.0424C76.9643 27.1593 77.671 25.1606 75.08 24.0436C72.489 22.8679 72.2534 27.1593 73.019 29.9222C73.7845 32.6852 70.1924 36.3887 70.1924 36.3887C70.1924 36.3887 70.1924 36.3887 66.6004 32.5088C63.0083 28.6289 59.6518 12.2864 61.2417 8.81801C61.4184 8.4653 61.5361 8.17137 61.6539 7.81865Z" fill="#151F2C"/>
<path d="M111.354 187.587C111.707 166.835 111.707 148.2 111.648 147.788C111.648 147.788 111.648 147.142 111.589 146.084C91.5681 121.393 65.8348 95.7039 65.8348 95.7039C65.8348 95.7039 60.2406 168.187 111.354 187.587Z" fill="#8D043E"/>
<path d="M84.2074 91.4714C84.5019 91.9417 90.8027 129.271 107.055 129.682C108.645 129.741 110 129.565 111.06 129.212C111.001 128.154 111.001 127.155 110.942 126.214C110.942 126.155 110.942 126.096 110.942 126.096C110.765 123.51 109.175 116.573 106.996 108.519C100.342 107.167 92.5693 101.112 84.2074 91.4714Z" fill="#8D043E"/>
<path d="M64.127 55.6117C64.127 55.6117 66.0703 50.027 67.6013 49.3804C67.6013 49.3804 89.4481 54.436 96.75 78.4795C96.75 78.4795 88.2704 63.7242 64.127 55.6117Z" fill="#6BB7BF"/>
<path d="M107.821 235.968L151.338 242.023L174.362 245.197C183.313 246.432 191.616 240.142 192.852 231.265L215.111 70.7788C216.348 61.9021 210.106 53.5545 201.155 52.32L180.781 49.4982L134.673 43.0905C125.722 41.856 117.419 48.1461 116.183 57.0228L93.8058 217.509C92.5692 226.386 98.87 234.733 107.821 235.968Z" fill="#D4D5D9"/>
<mask id="path-17-inside-1_316_379" fill="white">
<path d="M104.935 189.174L107.291 180.885L109.646 172.596C110.235 170.48 111.648 168.775 113.415 167.776C115.181 166.776 117.36 166.424 119.48 167.07C119.716 167.129 119.951 167.188 120.187 167.306C119.539 166.071 119.303 164.719 119.362 163.367C117.419 166.659 113.238 168.187 109.587 166.777C105.465 165.189 103.463 160.545 105.053 156.43L108.174 148.435L111.295 140.44C112.119 138.383 113.65 136.854 115.535 136.031C117.419 135.208 119.598 135.091 121.659 135.914C125.781 137.501 127.783 142.204 126.193 146.26L121.482 158.311C122.012 157.723 122.66 157.194 123.425 156.783C124.957 155.901 126.605 155.607 128.254 155.783C127.606 154.667 127.253 153.432 127.194 152.139C127.135 150.493 127.548 148.788 128.549 147.377C128.077 144.261 129.432 141.087 132.258 139.323L146.803 130.329C150.572 128.036 155.518 129.212 157.815 132.916C159.935 136.384 159.111 140.852 155.99 143.321C156.696 143.438 157.403 143.615 158.051 143.909L166 147.318L173.891 150.728C176.659 151.904 178.425 154.49 178.661 157.253L179.838 155.313L184.255 147.906C186.493 144.144 191.439 142.851 195.208 145.084C198.977 147.318 200.272 152.256 198.034 156.019L193.618 163.426L190.791 168.187C193.441 169.716 195.09 172.655 194.854 175.83L194.089 184.412L193.323 192.995C193.147 195.17 192.028 197.11 190.497 198.403C188.907 199.697 186.846 200.461 184.667 200.226C183.725 200.167 182.842 199.873 182.017 199.52C182.606 201.284 182.547 203.224 181.9 204.929C183.254 205.987 184.255 207.457 184.726 209.22L186.905 217.568L189.084 225.915C189.614 228.032 189.26 230.207 188.2 231.97C187.14 233.734 185.433 235.086 183.313 235.674C180.015 236.556 176.6 235.145 174.715 232.499C174.009 233.675 173.067 234.616 171.83 235.321C168.002 237.496 163.115 236.144 160.936 232.323L156.696 224.857L152.456 217.391C151.868 216.392 151.573 215.275 151.455 214.158C149.63 214.099 147.804 213.394 146.391 212.101L145.155 210.984L146.686 213.688L150.925 221.154C153.104 224.975 151.75 229.854 147.922 232.029C144.095 234.204 139.207 232.852 137.028 229.031L132.788 221.565L128.549 214.099C128.49 213.982 128.431 213.923 128.372 213.805C127.842 214.393 127.253 214.922 126.605 215.393L128.136 218.038C130.315 221.859 128.961 226.738 125.133 228.913C121.306 231.089 116.418 229.736 114.239 225.915L105.76 210.925C104.7 209.044 104.464 206.81 105.053 204.87C105.583 202.871 106.878 201.108 108.822 200.049C109.469 199.697 110.176 199.403 110.883 199.226C110.765 199.226 110.706 199.168 110.588 199.168C106.231 197.874 103.757 193.407 104.935 189.174ZM177.365 191.584L177.601 188.645C177.012 189.409 176.188 190.115 175.304 190.585C174.951 190.761 174.598 190.938 174.244 191.055L177.542 194.053C177.365 193.289 177.306 192.466 177.365 191.584ZM125.015 176.947L121.894 188.057C122.778 186.764 123.955 185.823 125.31 185.235C126.959 184.53 128.902 184.354 130.727 184.883C129.962 184.295 129.314 183.531 128.843 182.649L125.192 176.241C125.133 176.476 125.074 176.711 125.015 176.947ZM147.333 148.788L145.096 150.14L146.98 151.845C146.862 150.845 146.98 149.787 147.333 148.788ZM142.092 173.596C142.446 172.42 143.093 171.303 143.977 170.421C143.447 170.127 142.858 169.775 142.387 169.304L136.734 164.131L142.092 173.596ZM134.849 187.704C136.734 186.529 138.971 186.235 141.091 186.764L141.209 184.589C140.797 185 140.267 185.353 139.737 185.647C137.794 186.764 135.556 186.94 133.554 186.352C134.025 186.764 134.437 187.234 134.849 187.704ZM154.989 159.957C156.343 162.838 155.931 166.365 153.693 168.834C153.634 168.893 153.634 168.893 153.575 168.952C154.105 169.246 154.635 169.598 155.106 170.01C154.93 168.834 154.989 167.658 155.283 166.483C155.813 164.484 157.108 162.72 159.052 161.662L154.989 159.957ZM160.229 180.121L157.756 175.712C157.756 175.947 157.756 176.241 157.756 176.476L157.285 183.883C158.581 183.001 160.053 182.531 161.584 182.531L160.229 180.121ZM169.828 215.51L169.239 213.218C168.827 211.572 168.945 209.867 169.533 208.338C169.357 208.221 169.18 208.103 169.062 207.927L156.343 196.287C156.284 196.228 156.166 196.111 156.107 196.052C155.813 196.816 155.401 197.463 154.93 198.11L157.167 200.167C158.698 201.578 159.523 203.4 159.699 205.34C162.349 205.458 164.94 206.869 166.354 209.396L169.828 215.51ZM133.907 200.579L133.201 202.342C133.966 202.107 134.732 202.048 135.497 202.048L133.907 200.579ZM116.948 200.108L117.89 197.639L118.067 197.169C117.066 198.11 115.829 198.756 114.475 199.109C115.358 199.285 116.182 199.638 116.948 200.108ZM170.593 166.012L174.127 172.244L178.366 179.709C178.366 179.768 178.425 179.768 178.425 179.827L178.896 174.419C178.896 174.301 178.955 174.125 178.955 174.007C178.72 173.89 178.484 173.772 178.249 173.654C175.186 171.832 173.773 168.364 174.539 165.072C173.361 165.718 172.007 166.071 170.593 166.012Z"/>
</mask>
<path d="M104.935 189.174L107.291 180.885L109.646 172.596C110.235 170.48 111.648 168.775 113.415 167.776C115.181 166.776 117.36 166.424 119.48 167.07C119.716 167.129 119.951 167.188 120.187 167.306C119.539 166.071 119.303 164.719 119.362 163.367C117.419 166.659 113.238 168.187 109.587 166.777C105.465 165.189 103.463 160.545 105.053 156.43L108.174 148.435L111.295 140.44C112.119 138.383 113.65 136.854 115.535 136.031C117.419 135.208 119.598 135.091 121.659 135.914C125.781 137.501 127.783 142.204 126.193 146.26L121.482 158.311C122.012 157.723 122.66 157.194 123.425 156.783C124.957 155.901 126.605 155.607 128.254 155.783C127.606 154.667 127.253 153.432 127.194 152.139C127.135 150.493 127.548 148.788 128.549 147.377C128.077 144.261 129.432 141.087 132.258 139.323L146.803 130.329C150.572 128.036 155.518 129.212 157.815 132.916C159.935 136.384 159.111 140.852 155.99 143.321C156.696 143.438 157.403 143.615 158.051 143.909L166 147.318L173.891 150.728C176.659 151.904 178.425 154.49 178.661 157.253L179.838 155.313L184.255 147.906C186.493 144.144 191.439 142.851 195.208 145.084C198.977 147.318 200.272 152.256 198.034 156.019L193.618 163.426L190.791 168.187C193.441 169.716 195.09 172.655 194.854 175.83L194.089 184.412L193.323 192.995C193.147 195.17 192.028 197.11 190.497 198.403C188.907 199.697 186.846 200.461 184.667 200.226C183.725 200.167 182.842 199.873 182.017 199.52C182.606 201.284 182.547 203.224 181.9 204.929C183.254 205.987 184.255 207.457 184.726 209.22L186.905 217.568L189.084 225.915C189.614 228.032 189.26 230.207 188.2 231.97C187.14 233.734 185.433 235.086 183.313 235.674C180.015 236.556 176.6 235.145 174.715 232.499C174.009 233.675 173.067 234.616 171.83 235.321C168.002 237.496 163.115 236.144 160.936 232.323L156.696 224.857L152.456 217.391C151.868 216.392 151.573 215.275 151.455 214.158C149.63 214.099 147.804 213.394 146.391 212.101L145.155 210.984L146.686 213.688L150.925 221.154C153.104 224.975 151.75 229.854 147.922 232.029C144.095 234.204 139.207 232.852 137.028 229.031L132.788 221.565L128.549 214.099C128.49 213.982 128.431 213.923 128.372 213.805C127.842 214.393 127.253 214.922 126.605 215.393L128.136 218.038C130.315 221.859 128.961 226.738 125.133 228.913C121.306 231.089 116.418 229.736 114.239 225.915L105.76 210.925C104.7 209.044 104.464 206.81 105.053 204.87C105.583 202.871 106.878 201.108 108.822 200.049C109.469 199.697 110.176 199.403 110.883 199.226C110.765 199.226 110.706 199.168 110.588 199.168C106.231 197.874 103.757 193.407 104.935 189.174ZM177.365 191.584L177.601 188.645C177.012 189.409 176.188 190.115 175.304 190.585C174.951 190.761 174.598 190.938 174.244 191.055L177.542 194.053C177.365 193.289 177.306 192.466 177.365 191.584ZM125.015 176.947L121.894 188.057C122.778 186.764 123.955 185.823 125.31 185.235C126.959 184.53 128.902 184.354 130.727 184.883C129.962 184.295 129.314 183.531 128.843 182.649L125.192 176.241C125.133 176.476 125.074 176.711 125.015 176.947ZM147.333 148.788L145.096 150.14L146.98 151.845C146.862 150.845 146.98 149.787 147.333 148.788ZM142.092 173.596C142.446 172.42 143.093 171.303 143.977 170.421C143.447 170.127 142.858 169.775 142.387 169.304L136.734 164.131L142.092 173.596ZM134.849 187.704C136.734 186.529 138.971 186.235 141.091 186.764L141.209 184.589C140.797 185 140.267 185.353 139.737 185.647C137.794 186.764 135.556 186.94 133.554 186.352C134.025 186.764 134.437 187.234 134.849 187.704ZM154.989 159.957C156.343 162.838 155.931 166.365 153.693 168.834C153.634 168.893 153.634 168.893 153.575 168.952C154.105 169.246 154.635 169.598 155.106 170.01C154.93 168.834 154.989 167.658 155.283 166.483C155.813 164.484 157.108 162.72 159.052 161.662L154.989 159.957ZM160.229 180.121L157.756 175.712C157.756 175.947 157.756 176.241 157.756 176.476L157.285 183.883C158.581 183.001 160.053 182.531 161.584 182.531L160.229 180.121ZM169.828 215.51L169.239 213.218C168.827 211.572 168.945 209.867 169.533 208.338C169.357 208.221 169.18 208.103 169.062 207.927L156.343 196.287C156.284 196.228 156.166 196.111 156.107 196.052C155.813 196.816 155.401 197.463 154.93 198.11L157.167 200.167C158.698 201.578 159.523 203.4 159.699 205.34C162.349 205.458 164.94 206.869 166.354 209.396L169.828 215.51ZM133.907 200.579L133.201 202.342C133.966 202.107 134.732 202.048 135.497 202.048L133.907 200.579ZM116.948 200.108L117.89 197.639L118.067 197.169C117.066 198.11 115.829 198.756 114.475 199.109C115.358 199.285 116.182 199.638 116.948 200.108ZM170.593 166.012L174.127 172.244L178.366 179.709C178.366 179.768 178.425 179.768 178.425 179.827L178.896 174.419C178.896 174.301 178.955 174.125 178.955 174.007C178.72 173.89 178.484 173.772 178.249 173.654C175.186 171.832 173.773 168.364 174.539 165.072C173.361 165.718 172.007 166.071 170.593 166.012Z" fill="#FFA733" stroke="#FFE99D" stroke-width="2" mask="url(#path-17-inside-1_316_379)"/>
<path d="M118.42 48.5575L180.192 57.1403L215.229 62.0196C216.996 62.2547 218.586 61.0202 218.821 59.3154L220.941 44.2073C221.177 42.5026 219.94 40.8565 218.232 40.6214L183.254 35.7421L121.423 27.1594C119.716 26.9242 118.067 28.1587 117.831 29.8635L115.711 44.9716C115.476 46.6764 116.713 48.3224 118.42 48.5575Z" fill="#EF0065"/>
<path d="M159.935 142.262C159.935 142.262 160.23 141.616 161.231 140.91C161.996 140.087 162.821 139.029 163.056 138.383C163.468 137.148 164.999 137.03 165.294 138.265C165.412 138.676 165.353 139.088 165.235 139.558C167.826 139.147 171.536 139.264 177.012 140.44C177.012 140.44 181.311 141.145 177.601 143.908C175.128 145.731 173.597 145.319 170.064 147.847C166.53 150.375 162.173 151.08 159.464 149.376L155.872 148.788L155.224 142.674L159.935 142.262Z" fill="#F9C29D"/>
<path d="M59.2984 74.1881C59.2984 74.1881 51.9965 112.458 95.8079 142.027C107.644 150.022 160.229 150.904 160.229 150.904C160.229 150.904 161.819 144.379 158.286 141.675C158.286 141.675 113.356 125.802 108.94 126.567C105.053 127.272 84.4429 88.8846 76.4343 81.36C68.4258 73.8942 59.2984 74.1881 59.2984 74.1881Z" fill="#EF0065"/>
</svg>
